<mxfile host="app.diagrams.net" modified="2024-06-09T11:43:50.259Z" agent="Mozilla/5.0 (Windows NT 10.0; Win64; x64) AppleWebKit/537.36 (KHTML, like Gecko) Chrome/125.0.0.0 Safari/537.36" etag="BQ79Yh7DJkpsCE5d4-6S" version="24.5.2" type="github">
  <diagram name="Page-1" id="9okEY_vL0eP9tNOJIynl">
    <mxGraphModel dx="1805" dy="506" grid="1" gridSize="10" guides="1" tooltips="1" connect="1" arrows="1" fold="1" page="1" pageScale="1" pageWidth="850" pageHeight="1100" math="0" shadow="0">
      <root>
        <mxCell id="0" />
        <mxCell id="1" parent="0" />
        <mxCell id="3vHU1Un_TV8UR1uH7hlG-50" style="edgeStyle=orthogonalEdgeStyle;rounded=0;orthogonalLoop=1;jettySize=auto;html=1;entryX=0.5;entryY=0;entryDx=0;entryDy=0;" edge="1" parent="1" source="3vHU1Un_TV8UR1uH7hlG-2" target="3vHU1Un_TV8UR1uH7hlG-6">
          <mxGeometry relative="1" as="geometry" />
        </mxCell>
        <mxCell id="3vHU1Un_TV8UR1uH7hlG-51" style="edgeStyle=orthogonalEdgeStyle;rounded=0;orthogonalLoop=1;jettySize=auto;html=1;entryX=0.5;entryY=0;entryDx=0;entryDy=0;" edge="1" parent="1" source="3vHU1Un_TV8UR1uH7hlG-2" target="3vHU1Un_TV8UR1uH7hlG-7">
          <mxGeometry relative="1" as="geometry" />
        </mxCell>
        <mxCell id="3vHU1Un_TV8UR1uH7hlG-2" value="Home" style="strokeWidth=2;html=1;shape=mxgraph.flowchart.start_1;whiteSpace=wrap;fillColor=#fff2cc;strokeColor=#d6b656;" vertex="1" parent="1">
          <mxGeometry x="-163" y="49.37" width="100" height="60" as="geometry" />
        </mxCell>
        <mxCell id="3vHU1Un_TV8UR1uH7hlG-6" value="Nav bar action" style="rounded=1;whiteSpace=wrap;html=1;absoluteArcSize=1;arcSize=14;strokeWidth=2;" vertex="1" parent="1">
          <mxGeometry x="-550" y="169.37" width="100" height="50" as="geometry" />
        </mxCell>
        <mxCell id="3vHU1Un_TV8UR1uH7hlG-54" value="" style="edgeStyle=orthogonalEdgeStyle;rounded=0;orthogonalLoop=1;jettySize=auto;html=1;" edge="1" parent="1" source="3vHU1Un_TV8UR1uH7hlG-7" target="3vHU1Un_TV8UR1uH7hlG-53">
          <mxGeometry relative="1" as="geometry" />
        </mxCell>
        <mxCell id="3vHU1Un_TV8UR1uH7hlG-7" value="See main post/Side button" style="rounded=1;whiteSpace=wrap;html=1;absoluteArcSize=1;arcSize=14;strokeWidth=2;" vertex="1" parent="1">
          <mxGeometry x="282" y="169.37" width="100" height="50" as="geometry" />
        </mxCell>
        <mxCell id="3vHU1Un_TV8UR1uH7hlG-14" style="edgeStyle=orthogonalEdgeStyle;rounded=0;orthogonalLoop=1;jettySize=auto;html=1;entryX=0.5;entryY=0;entryDx=0;entryDy=0;" edge="1" parent="1" source="3vHU1Un_TV8UR1uH7hlG-9" target="3vHU1Un_TV8UR1uH7hlG-12">
          <mxGeometry relative="1" as="geometry" />
        </mxCell>
        <mxCell id="3vHU1Un_TV8UR1uH7hlG-15" style="edgeStyle=orthogonalEdgeStyle;rounded=0;orthogonalLoop=1;jettySize=auto;html=1;entryX=0.5;entryY=0;entryDx=0;entryDy=0;" edge="1" parent="1" source="3vHU1Un_TV8UR1uH7hlG-9" target="3vHU1Un_TV8UR1uH7hlG-11">
          <mxGeometry relative="1" as="geometry" />
        </mxCell>
        <mxCell id="3vHU1Un_TV8UR1uH7hlG-16" style="edgeStyle=orthogonalEdgeStyle;rounded=0;orthogonalLoop=1;jettySize=auto;html=1;entryX=0.5;entryY=0;entryDx=0;entryDy=0;" edge="1" parent="1" source="3vHU1Un_TV8UR1uH7hlG-9" target="3vHU1Un_TV8UR1uH7hlG-13">
          <mxGeometry relative="1" as="geometry" />
        </mxCell>
        <mxCell id="3vHU1Un_TV8UR1uH7hlG-9" value="Click sth?" style="strokeWidth=2;html=1;shape=mxgraph.flowchart.decision;whiteSpace=wrap;" vertex="1" parent="1">
          <mxGeometry x="-540.5" y="259.37" width="81" height="40" as="geometry" />
        </mxCell>
        <mxCell id="3vHU1Un_TV8UR1uH7hlG-10" style="edgeStyle=orthogonalEdgeStyle;rounded=0;orthogonalLoop=1;jettySize=auto;html=1;entryX=0.5;entryY=0;entryDx=0;entryDy=0;entryPerimeter=0;" edge="1" parent="1" source="3vHU1Un_TV8UR1uH7hlG-6" target="3vHU1Un_TV8UR1uH7hlG-9">
          <mxGeometry relative="1" as="geometry" />
        </mxCell>
        <mxCell id="3vHU1Un_TV8UR1uH7hlG-11" value="Filter Post&lt;span style=&quot;color: rgba(0, 0, 0, 0); font-family: monospace; font-size: 0px; text-align: start; text-wrap: nowrap;&quot;&gt;%3CmxGraphModel%3E%3Croot%3E%3CmxCell%20id%3D%220%22%2F%3E%3CmxCell%20id%3D%221%22%20parent%3D%220%22%2F%3E%3CmxCell%20id%3D%222%22%20value%3D%22Nav%20bar%20action%22%20style%3D%22rounded%3D1%3BwhiteSpace%3Dwrap%3Bhtml%3D1%3BabsoluteArcSize%3D1%3BarcSize%3D14%3BstrokeWidth%3D2%3B%22%20vertex%3D%221%22%20parent%3D%221%22%3E%3CmxGeometry%20x%3D%22259%22%20y%3D%22160%22%20width%3D%22100%22%20height%3D%2250%22%20as%3D%22geometry%22%2F%3E%3C%2FmxCell%3E%3C%2Froot%3E%3C%2FmxGraphModel%3E&lt;/span&gt;" style="rounded=1;whiteSpace=wrap;html=1;absoluteArcSize=1;arcSize=14;strokeWidth=2;" vertex="1" parent="1">
          <mxGeometry x="-810" y="329.37" width="100" height="50" as="geometry" />
        </mxCell>
        <mxCell id="3vHU1Un_TV8UR1uH7hlG-12" value="&lt;div style=&quot;text-align: center;&quot;&gt;&lt;span style=&quot;text-align: start; background-color: initial;&quot;&gt;Login&lt;/span&gt;&lt;span style=&quot;color: rgba(0, 0, 0, 0); font-family: monospace; font-size: 0px; text-align: start; text-wrap: nowrap; background-color: initial;&quot;&gt;%3CmxGraphModel%3E%3Croot%3E%3CmxCell%20id%3D%220%22%2F%3E%3CmxCell%20id%3D%221%22%20parent%3D%220%22%2F%3E%3CmxCell%20id%3D%222%22%20value%3D%22Nav%20bar%20action%22%20style%3D%22rounded%3D1%3BwhiteSpace%3Dwrap%3Bhtml%3D1%3BabsoluteArcSize%3D1%3BarcSize%3D14%3BstrokeWidth%3D2%3B%22%20vertex%3D%221%22%20parent%3D%221%22%3E%3CmxGeometry%20x%3D%22259%22%20y%3D%22160%22%20width%3D%22100%22%20height%3D%2250%22%20as%3D%22geometry%22%2F%3E%3C%2FmxCell%3E%3C%2Froot%3E%3C%2FmxGraphModel%3E&lt;/span&gt;&lt;/div&gt;" style="rounded=1;whiteSpace=wrap;html=1;absoluteArcSize=1;arcSize=14;strokeWidth=2;" vertex="1" parent="1">
          <mxGeometry x="-550" y="329.37" width="100" height="50" as="geometry" />
        </mxCell>
        <mxCell id="3vHU1Un_TV8UR1uH7hlG-13" value="Signup" style="rounded=1;whiteSpace=wrap;html=1;absoluteArcSize=1;arcSize=14;strokeWidth=2;" vertex="1" parent="1">
          <mxGeometry x="-290" y="329.37" width="100" height="50" as="geometry" />
        </mxCell>
        <mxCell id="3vHU1Un_TV8UR1uH7hlG-17" value="" style="strokeWidth=2;html=1;shape=mxgraph.flowchart.database;whiteSpace=wrap;" vertex="1" parent="1">
          <mxGeometry x="-774.5" y="419.37" width="29" height="30" as="geometry" />
        </mxCell>
        <mxCell id="3vHU1Un_TV8UR1uH7hlG-18" style="edgeStyle=orthogonalEdgeStyle;rounded=0;orthogonalLoop=1;jettySize=auto;html=1;entryX=0.5;entryY=0;entryDx=0;entryDy=0;entryPerimeter=0;" edge="1" parent="1" source="3vHU1Un_TV8UR1uH7hlG-11" target="3vHU1Un_TV8UR1uH7hlG-17">
          <mxGeometry relative="1" as="geometry" />
        </mxCell>
        <mxCell id="3vHU1Un_TV8UR1uH7hlG-20" style="edgeStyle=orthogonalEdgeStyle;rounded=0;orthogonalLoop=1;jettySize=auto;html=1;entryX=0.5;entryY=0;entryDx=0;entryDy=0;" edge="1" parent="1" source="3vHU1Un_TV8UR1uH7hlG-17" target="3vHU1Un_TV8UR1uH7hlG-21">
          <mxGeometry relative="1" as="geometry">
            <mxPoint x="-638.9999999999998" y="469.37" as="targetPoint" />
          </mxGeometry>
        </mxCell>
        <mxCell id="3vHU1Un_TV8UR1uH7hlG-52" style="edgeStyle=orthogonalEdgeStyle;rounded=0;orthogonalLoop=1;jettySize=auto;html=1;entryX=0;entryY=0.5;entryDx=0;entryDy=0;dashed=1;fillColor=#dae8fc;strokeColor=#6c8ebf;" edge="1" parent="1" source="3vHU1Un_TV8UR1uH7hlG-21" target="3vHU1Un_TV8UR1uH7hlG-7">
          <mxGeometry relative="1" as="geometry">
            <Array as="points">
              <mxPoint x="-717" y="670" />
              <mxPoint x="-830" y="670" />
              <mxPoint x="-830" y="140" />
              <mxPoint x="260" y="140" />
              <mxPoint x="260" y="194" />
            </Array>
          </mxGeometry>
        </mxCell>
        <mxCell id="3vHU1Un_TV8UR1uH7hlG-21" value="Show Filtered Post" style="rounded=1;whiteSpace=wrap;html=1;absoluteArcSize=1;arcSize=14;strokeWidth=2;" vertex="1" parent="1">
          <mxGeometry x="-810" y="479.37" width="100" height="50" as="geometry" />
        </mxCell>
        <mxCell id="3vHU1Un_TV8UR1uH7hlG-31" style="edgeStyle=orthogonalEdgeStyle;rounded=0;orthogonalLoop=1;jettySize=auto;html=1;entryX=0.5;entryY=0;entryDx=0;entryDy=0;" edge="1" parent="1" source="3vHU1Un_TV8UR1uH7hlG-22" target="3vHU1Un_TV8UR1uH7hlG-27">
          <mxGeometry relative="1" as="geometry" />
        </mxCell>
        <mxCell id="3vHU1Un_TV8UR1uH7hlG-22" value="&lt;font style=&quot;font-size: 10px;&quot;&gt;Is login correct?&lt;/font&gt;" style="strokeWidth=2;html=1;shape=mxgraph.flowchart.decision;whiteSpace=wrap;" vertex="1" parent="1">
          <mxGeometry x="-550" y="484.37" width="100" height="40" as="geometry" />
        </mxCell>
        <mxCell id="3vHU1Un_TV8UR1uH7hlG-23" value="" style="strokeWidth=2;html=1;shape=mxgraph.flowchart.database;whiteSpace=wrap;" vertex="1" parent="1">
          <mxGeometry x="-514.5" y="419.37" width="29" height="30" as="geometry" />
        </mxCell>
        <mxCell id="3vHU1Un_TV8UR1uH7hlG-24" style="edgeStyle=orthogonalEdgeStyle;rounded=0;orthogonalLoop=1;jettySize=auto;html=1;entryX=0.5;entryY=0;entryDx=0;entryDy=0;entryPerimeter=0;" edge="1" parent="1" source="3vHU1Un_TV8UR1uH7hlG-12" target="3vHU1Un_TV8UR1uH7hlG-23">
          <mxGeometry relative="1" as="geometry" />
        </mxCell>
        <mxCell id="3vHU1Un_TV8UR1uH7hlG-25" style="edgeStyle=orthogonalEdgeStyle;rounded=0;orthogonalLoop=1;jettySize=auto;html=1;entryX=0.5;entryY=0;entryDx=0;entryDy=0;entryPerimeter=0;" edge="1" parent="1" source="3vHU1Un_TV8UR1uH7hlG-23" target="3vHU1Un_TV8UR1uH7hlG-22">
          <mxGeometry relative="1" as="geometry" />
        </mxCell>
        <mxCell id="3vHU1Un_TV8UR1uH7hlG-26" value="&lt;div style=&quot;text-align: start;&quot;&gt;Login Failed&lt;/div&gt;" style="rounded=1;whiteSpace=wrap;html=1;absoluteArcSize=1;arcSize=14;strokeWidth=2;" vertex="1" parent="1">
          <mxGeometry x="-614.5" y="569.37" width="100" height="50" as="geometry" />
        </mxCell>
        <mxCell id="3vHU1Un_TV8UR1uH7hlG-27" value="&lt;div style=&quot;text-align: start;&quot;&gt;Return Home&lt;/div&gt;" style="rounded=1;whiteSpace=wrap;html=1;absoluteArcSize=1;arcSize=14;strokeWidth=2;" vertex="1" parent="1">
          <mxGeometry x="-485.5" y="569.37" width="100" height="50" as="geometry" />
        </mxCell>
        <mxCell id="3vHU1Un_TV8UR1uH7hlG-30" style="edgeStyle=orthogonalEdgeStyle;rounded=0;orthogonalLoop=1;jettySize=auto;html=1;entryX=0.425;entryY=-0.012;entryDx=0;entryDy=0;entryPerimeter=0;" edge="1" parent="1" source="3vHU1Un_TV8UR1uH7hlG-22" target="3vHU1Un_TV8UR1uH7hlG-26">
          <mxGeometry relative="1" as="geometry" />
        </mxCell>
        <mxCell id="3vHU1Un_TV8UR1uH7hlG-32" value="Yes" style="text;html=1;align=center;verticalAlign=middle;whiteSpace=wrap;rounded=0;" vertex="1" parent="1">
          <mxGeometry x="-485.5" y="529.37" width="40" height="20" as="geometry" />
        </mxCell>
        <mxCell id="3vHU1Un_TV8UR1uH7hlG-33" value="No" style="text;html=1;align=center;verticalAlign=middle;whiteSpace=wrap;rounded=0;" vertex="1" parent="1">
          <mxGeometry x="-550" y="529.37" width="40" height="20" as="geometry" />
        </mxCell>
        <mxCell id="3vHU1Un_TV8UR1uH7hlG-42" style="edgeStyle=orthogonalEdgeStyle;rounded=0;orthogonalLoop=1;jettySize=auto;html=1;entryX=0.5;entryY=0;entryDx=0;entryDy=0;" edge="1" parent="1" source="3vHU1Un_TV8UR1uH7hlG-35" target="3vHU1Un_TV8UR1uH7hlG-40">
          <mxGeometry relative="1" as="geometry" />
        </mxCell>
        <mxCell id="3vHU1Un_TV8UR1uH7hlG-43" style="edgeStyle=orthogonalEdgeStyle;rounded=0;orthogonalLoop=1;jettySize=auto;html=1;entryX=0.5;entryY=0;entryDx=0;entryDy=0;" edge="1" parent="1" source="3vHU1Un_TV8UR1uH7hlG-35" target="3vHU1Un_TV8UR1uH7hlG-41">
          <mxGeometry relative="1" as="geometry" />
        </mxCell>
        <mxCell id="3vHU1Un_TV8UR1uH7hlG-35" value="&lt;font style=&quot;font-size: 10px;&quot;&gt;Is username available?&lt;/font&gt;" style="strokeWidth=2;html=1;shape=mxgraph.flowchart.decision;whiteSpace=wrap;" vertex="1" parent="1">
          <mxGeometry x="-290" y="484.37" width="100" height="40" as="geometry" />
        </mxCell>
        <mxCell id="3vHU1Un_TV8UR1uH7hlG-36" value="" style="strokeWidth=2;html=1;shape=mxgraph.flowchart.database;whiteSpace=wrap;" vertex="1" parent="1">
          <mxGeometry x="-254.5" y="429.37" width="29" height="30" as="geometry" />
        </mxCell>
        <mxCell id="3vHU1Un_TV8UR1uH7hlG-37" style="edgeStyle=orthogonalEdgeStyle;rounded=0;orthogonalLoop=1;jettySize=auto;html=1;exitX=0.5;exitY=1;exitDx=0;exitDy=0;exitPerimeter=0;" edge="1" parent="1" source="3vHU1Un_TV8UR1uH7hlG-36" target="3vHU1Un_TV8UR1uH7hlG-36">
          <mxGeometry relative="1" as="geometry" />
        </mxCell>
        <mxCell id="3vHU1Un_TV8UR1uH7hlG-38" style="edgeStyle=orthogonalEdgeStyle;rounded=0;orthogonalLoop=1;jettySize=auto;html=1;entryX=0.5;entryY=0;entryDx=0;entryDy=0;entryPerimeter=0;" edge="1" parent="1" source="3vHU1Un_TV8UR1uH7hlG-13" target="3vHU1Un_TV8UR1uH7hlG-36">
          <mxGeometry relative="1" as="geometry" />
        </mxCell>
        <mxCell id="3vHU1Un_TV8UR1uH7hlG-39" style="edgeStyle=orthogonalEdgeStyle;rounded=0;orthogonalLoop=1;jettySize=auto;html=1;entryX=0.5;entryY=0;entryDx=0;entryDy=0;entryPerimeter=0;" edge="1" parent="1" source="3vHU1Un_TV8UR1uH7hlG-36" target="3vHU1Un_TV8UR1uH7hlG-35">
          <mxGeometry relative="1" as="geometry" />
        </mxCell>
        <mxCell id="3vHU1Un_TV8UR1uH7hlG-40" value="&lt;div style=&quot;text-align: start;&quot;&gt;Unable to signup&lt;/div&gt;" style="rounded=1;whiteSpace=wrap;html=1;absoluteArcSize=1;arcSize=14;strokeWidth=2;" vertex="1" parent="1">
          <mxGeometry x="-350.01" y="569.37" width="100" height="50" as="geometry" />
        </mxCell>
        <mxCell id="3vHU1Un_TV8UR1uH7hlG-47" value="" style="edgeStyle=orthogonalEdgeStyle;rounded=0;orthogonalLoop=1;jettySize=auto;html=1;" edge="1" parent="1" source="3vHU1Un_TV8UR1uH7hlG-41" target="3vHU1Un_TV8UR1uH7hlG-46">
          <mxGeometry relative="1" as="geometry" />
        </mxCell>
        <mxCell id="3vHU1Un_TV8UR1uH7hlG-41" value="&lt;div style=&quot;text-align: start;&quot;&gt;Sign up&lt;/div&gt;" style="rounded=1;whiteSpace=wrap;html=1;absoluteArcSize=1;arcSize=14;strokeWidth=2;" vertex="1" parent="1">
          <mxGeometry x="-225" y="569.37" width="100" height="50" as="geometry" />
        </mxCell>
        <mxCell id="3vHU1Un_TV8UR1uH7hlG-44" value="Yes" style="text;html=1;align=center;verticalAlign=middle;whiteSpace=wrap;rounded=0;" vertex="1" parent="1">
          <mxGeometry x="-220" y="529.37" width="40" height="20" as="geometry" />
        </mxCell>
        <mxCell id="3vHU1Un_TV8UR1uH7hlG-45" value="No" style="text;html=1;align=center;verticalAlign=middle;whiteSpace=wrap;rounded=0;" vertex="1" parent="1">
          <mxGeometry x="-294.5" y="529.37" width="40" height="20" as="geometry" />
        </mxCell>
        <mxCell id="3vHU1Un_TV8UR1uH7hlG-49" style="edgeStyle=orthogonalEdgeStyle;rounded=0;orthogonalLoop=1;jettySize=auto;html=1;" edge="1" parent="1" source="3vHU1Un_TV8UR1uH7hlG-46" target="3vHU1Un_TV8UR1uH7hlG-48">
          <mxGeometry relative="1" as="geometry" />
        </mxCell>
        <mxCell id="3vHU1Un_TV8UR1uH7hlG-46" value="" style="strokeWidth=2;html=1;shape=mxgraph.flowchart.database;whiteSpace=wrap;" vertex="1" parent="1">
          <mxGeometry x="-189.5" y="649.37" width="29" height="30" as="geometry" />
        </mxCell>
        <mxCell id="3vHU1Un_TV8UR1uH7hlG-48" value="&lt;div style=&quot;text-align: start;&quot;&gt;Sign up success&lt;/div&gt;" style="rounded=1;whiteSpace=wrap;html=1;absoluteArcSize=1;arcSize=14;strokeWidth=2;" vertex="1" parent="1">
          <mxGeometry x="-225" y="699.37" width="100" height="50" as="geometry" />
        </mxCell>
        <mxCell id="3vHU1Un_TV8UR1uH7hlG-56" style="edgeStyle=orthogonalEdgeStyle;rounded=0;orthogonalLoop=1;jettySize=auto;html=1;entryX=0.5;entryY=0;entryDx=0;entryDy=0;" edge="1" parent="1" source="3vHU1Un_TV8UR1uH7hlG-53" target="3vHU1Un_TV8UR1uH7hlG-55">
          <mxGeometry relative="1" as="geometry" />
        </mxCell>
        <mxCell id="3vHU1Un_TV8UR1uH7hlG-61" style="edgeStyle=orthogonalEdgeStyle;rounded=0;orthogonalLoop=1;jettySize=auto;html=1;entryX=0.5;entryY=0;entryDx=0;entryDy=0;" edge="1" parent="1" source="3vHU1Un_TV8UR1uH7hlG-53" target="3vHU1Un_TV8UR1uH7hlG-57">
          <mxGeometry relative="1" as="geometry">
            <Array as="points">
              <mxPoint x="332" y="309" />
              <mxPoint x="252" y="309" />
            </Array>
          </mxGeometry>
        </mxCell>
        <mxCell id="3vHU1Un_TV8UR1uH7hlG-63" style="edgeStyle=orthogonalEdgeStyle;rounded=0;orthogonalLoop=1;jettySize=auto;html=1;entryX=0.5;entryY=0;entryDx=0;entryDy=0;" edge="1" parent="1" source="3vHU1Un_TV8UR1uH7hlG-53" target="3vHU1Un_TV8UR1uH7hlG-59">
          <mxGeometry relative="1" as="geometry">
            <Array as="points">
              <mxPoint x="332" y="309" />
              <mxPoint x="412" y="309" />
            </Array>
          </mxGeometry>
        </mxCell>
        <mxCell id="3vHU1Un_TV8UR1uH7hlG-64" style="edgeStyle=orthogonalEdgeStyle;rounded=0;orthogonalLoop=1;jettySize=auto;html=1;entryX=0.5;entryY=0;entryDx=0;entryDy=0;" edge="1" parent="1" source="3vHU1Un_TV8UR1uH7hlG-53" target="3vHU1Un_TV8UR1uH7hlG-60">
          <mxGeometry relative="1" as="geometry" />
        </mxCell>
        <mxCell id="3vHU1Un_TV8UR1uH7hlG-53" value="Click sth?" style="strokeWidth=2;html=1;shape=mxgraph.flowchart.decision;whiteSpace=wrap;" vertex="1" parent="1">
          <mxGeometry x="291.5" y="259.37" width="81" height="40" as="geometry" />
        </mxCell>
        <mxCell id="3vHU1Un_TV8UR1uH7hlG-55" value="Write post" style="rounded=1;whiteSpace=wrap;html=1;absoluteArcSize=1;arcSize=14;strokeWidth=2;" vertex="1" parent="1">
          <mxGeometry x="-15" y="329.37" width="100" height="50" as="geometry" />
        </mxCell>
        <mxCell id="3vHU1Un_TV8UR1uH7hlG-73" value="" style="edgeStyle=orthogonalEdgeStyle;rounded=0;orthogonalLoop=1;jettySize=auto;html=1;" edge="1" parent="1" source="3vHU1Un_TV8UR1uH7hlG-57" target="3vHU1Un_TV8UR1uH7hlG-72">
          <mxGeometry relative="1" as="geometry" />
        </mxCell>
        <mxCell id="3vHU1Un_TV8UR1uH7hlG-57" value="Drop Feedback" style="rounded=1;whiteSpace=wrap;html=1;absoluteArcSize=1;arcSize=14;strokeWidth=2;" vertex="1" parent="1">
          <mxGeometry x="202" y="329.37" width="100" height="50" as="geometry" />
        </mxCell>
        <mxCell id="3vHU1Un_TV8UR1uH7hlG-78" value="" style="edgeStyle=orthogonalEdgeStyle;rounded=0;orthogonalLoop=1;jettySize=auto;html=1;" edge="1" parent="1" source="3vHU1Un_TV8UR1uH7hlG-59" target="3vHU1Un_TV8UR1uH7hlG-76">
          <mxGeometry relative="1" as="geometry" />
        </mxCell>
        <mxCell id="3vHU1Un_TV8UR1uH7hlG-59" value="Click on Post" style="rounded=1;whiteSpace=wrap;html=1;absoluteArcSize=1;arcSize=14;strokeWidth=2;" vertex="1" parent="1">
          <mxGeometry x="362" y="329.37" width="100" height="50" as="geometry" />
        </mxCell>
        <mxCell id="3vHU1Un_TV8UR1uH7hlG-82" value="" style="edgeStyle=orthogonalEdgeStyle;rounded=0;orthogonalLoop=1;jettySize=auto;html=1;" edge="1" parent="1" source="3vHU1Un_TV8UR1uH7hlG-60" target="3vHU1Un_TV8UR1uH7hlG-81">
          <mxGeometry relative="1" as="geometry" />
        </mxCell>
        <mxCell id="3vHU1Un_TV8UR1uH7hlG-60" value="Click right side content" style="rounded=1;whiteSpace=wrap;html=1;absoluteArcSize=1;arcSize=14;strokeWidth=2;" vertex="1" parent="1">
          <mxGeometry x="560" y="329.37" width="100" height="50" as="geometry" />
        </mxCell>
        <mxCell id="3vHU1Un_TV8UR1uH7hlG-70" style="edgeStyle=orthogonalEdgeStyle;rounded=0;orthogonalLoop=1;jettySize=auto;html=1;" edge="1" parent="1" source="3vHU1Un_TV8UR1uH7hlG-66" target="3vHU1Un_TV8UR1uH7hlG-69">
          <mxGeometry relative="1" as="geometry" />
        </mxCell>
        <mxCell id="3vHU1Un_TV8UR1uH7hlG-66" value="" style="strokeWidth=2;html=1;shape=mxgraph.flowchart.database;whiteSpace=wrap;" vertex="1" parent="1">
          <mxGeometry x="20" y="419.37" width="29" height="30" as="geometry" />
        </mxCell>
        <mxCell id="3vHU1Un_TV8UR1uH7hlG-67" style="edgeStyle=orthogonalEdgeStyle;rounded=0;orthogonalLoop=1;jettySize=auto;html=1;entryX=0.5;entryY=0;entryDx=0;entryDy=0;entryPerimeter=0;" edge="1" parent="1" source="3vHU1Un_TV8UR1uH7hlG-55" target="3vHU1Un_TV8UR1uH7hlG-66">
          <mxGeometry relative="1" as="geometry" />
        </mxCell>
        <mxCell id="3vHU1Un_TV8UR1uH7hlG-87" style="edgeStyle=orthogonalEdgeStyle;rounded=0;orthogonalLoop=1;jettySize=auto;html=1;entryX=0.5;entryY=0;entryDx=0;entryDy=0;" edge="1" parent="1" source="3vHU1Un_TV8UR1uH7hlG-69" target="3vHU1Un_TV8UR1uH7hlG-85">
          <mxGeometry relative="1" as="geometry" />
        </mxCell>
        <mxCell id="3vHU1Un_TV8UR1uH7hlG-88" style="edgeStyle=orthogonalEdgeStyle;rounded=0;orthogonalLoop=1;jettySize=auto;html=1;entryX=0.5;entryY=0;entryDx=0;entryDy=0;" edge="1" parent="1" source="3vHU1Un_TV8UR1uH7hlG-69" target="3vHU1Un_TV8UR1uH7hlG-86">
          <mxGeometry relative="1" as="geometry" />
        </mxCell>
        <mxCell id="3vHU1Un_TV8UR1uH7hlG-69" value="&lt;font style=&quot;font-size: 10px;&quot;&gt;Is login?&lt;/font&gt;" style="strokeWidth=2;html=1;shape=mxgraph.flowchart.decision;whiteSpace=wrap;" vertex="1" parent="1">
          <mxGeometry x="-15" y="484.37" width="100" height="40" as="geometry" />
        </mxCell>
        <mxCell id="3vHU1Un_TV8UR1uH7hlG-75" value="" style="edgeStyle=orthogonalEdgeStyle;rounded=0;orthogonalLoop=1;jettySize=auto;html=1;" edge="1" parent="1" source="3vHU1Un_TV8UR1uH7hlG-72" target="3vHU1Un_TV8UR1uH7hlG-74">
          <mxGeometry relative="1" as="geometry" />
        </mxCell>
        <mxCell id="3vHU1Un_TV8UR1uH7hlG-72" value="" style="strokeWidth=2;html=1;shape=mxgraph.flowchart.database;whiteSpace=wrap;" vertex="1" parent="1">
          <mxGeometry x="237.5" y="419.37" width="29" height="30" as="geometry" />
        </mxCell>
        <mxCell id="3vHU1Un_TV8UR1uH7hlG-98" value="" style="edgeStyle=orthogonalEdgeStyle;rounded=0;orthogonalLoop=1;jettySize=auto;html=1;" edge="1" parent="1" source="3vHU1Un_TV8UR1uH7hlG-74" target="3vHU1Un_TV8UR1uH7hlG-97">
          <mxGeometry relative="1" as="geometry" />
        </mxCell>
        <mxCell id="3vHU1Un_TV8UR1uH7hlG-74" value="Show feedback" style="rounded=1;whiteSpace=wrap;html=1;absoluteArcSize=1;arcSize=14;strokeWidth=2;" vertex="1" parent="1">
          <mxGeometry x="202" y="479.37" width="100" height="50" as="geometry" />
        </mxCell>
        <mxCell id="3vHU1Un_TV8UR1uH7hlG-80" value="" style="edgeStyle=orthogonalEdgeStyle;rounded=0;orthogonalLoop=1;jettySize=auto;html=1;" edge="1" parent="1" source="3vHU1Un_TV8UR1uH7hlG-76" target="3vHU1Un_TV8UR1uH7hlG-79">
          <mxGeometry relative="1" as="geometry" />
        </mxCell>
        <mxCell id="3vHU1Un_TV8UR1uH7hlG-76" value="" style="strokeWidth=2;html=1;shape=mxgraph.flowchart.database;whiteSpace=wrap;" vertex="1" parent="1">
          <mxGeometry x="397.5" y="419.37" width="29" height="30" as="geometry" />
        </mxCell>
        <mxCell id="3vHU1Un_TV8UR1uH7hlG-119" value="" style="edgeStyle=orthogonalEdgeStyle;rounded=0;orthogonalLoop=1;jettySize=auto;html=1;" edge="1" parent="1" source="3vHU1Un_TV8UR1uH7hlG-79" target="3vHU1Un_TV8UR1uH7hlG-118">
          <mxGeometry relative="1" as="geometry" />
        </mxCell>
        <mxCell id="3vHU1Un_TV8UR1uH7hlG-79" value="Show full post details" style="rounded=1;whiteSpace=wrap;html=1;absoluteArcSize=1;arcSize=14;strokeWidth=2;" vertex="1" parent="1">
          <mxGeometry x="362" y="479.37" width="100" height="50" as="geometry" />
        </mxCell>
        <mxCell id="3vHU1Un_TV8UR1uH7hlG-81" value="To other website URL" style="verticalLabelPosition=bottom;verticalAlign=top;html=1;strokeWidth=2;shape=mxgraph.arrows2.arrow;dy=0.6;dx=40;notch=0;" vertex="1" parent="1">
          <mxGeometry x="560" y="459.37" width="100" height="70" as="geometry" />
        </mxCell>
        <mxCell id="3vHU1Un_TV8UR1uH7hlG-85" value="Unable to create post, Please login" style="rounded=1;whiteSpace=wrap;html=1;absoluteArcSize=1;arcSize=14;strokeWidth=2;" vertex="1" parent="1">
          <mxGeometry x="-90" y="569.37" width="100" height="50" as="geometry" />
        </mxCell>
        <mxCell id="3vHU1Un_TV8UR1uH7hlG-86" value="Create post" style="rounded=1;whiteSpace=wrap;html=1;absoluteArcSize=1;arcSize=14;strokeWidth=2;" vertex="1" parent="1">
          <mxGeometry x="60" y="569.37" width="100" height="50" as="geometry" />
        </mxCell>
        <mxCell id="3vHU1Un_TV8UR1uH7hlG-89" value="Yes" style="text;html=1;align=center;verticalAlign=middle;whiteSpace=wrap;rounded=0;" vertex="1" parent="1">
          <mxGeometry x="60" y="529.37" width="40" height="20" as="geometry" />
        </mxCell>
        <mxCell id="3vHU1Un_TV8UR1uH7hlG-90" value="No" style="text;html=1;align=center;verticalAlign=middle;whiteSpace=wrap;rounded=0;" vertex="1" parent="1">
          <mxGeometry x="-20" y="529.37" width="40" height="20" as="geometry" />
        </mxCell>
        <mxCell id="3vHU1Un_TV8UR1uH7hlG-96" value="" style="edgeStyle=orthogonalEdgeStyle;rounded=0;orthogonalLoop=1;jettySize=auto;html=1;" edge="1" parent="1" source="3vHU1Un_TV8UR1uH7hlG-92" target="3vHU1Un_TV8UR1uH7hlG-95">
          <mxGeometry relative="1" as="geometry" />
        </mxCell>
        <mxCell id="3vHU1Un_TV8UR1uH7hlG-92" value="" style="strokeWidth=2;html=1;shape=mxgraph.flowchart.database;whiteSpace=wrap;" vertex="1" parent="1">
          <mxGeometry x="95.5" y="649.37" width="29" height="30" as="geometry" />
        </mxCell>
        <mxCell id="3vHU1Un_TV8UR1uH7hlG-94" style="edgeStyle=orthogonalEdgeStyle;rounded=0;orthogonalLoop=1;jettySize=auto;html=1;entryX=0.5;entryY=0;entryDx=0;entryDy=0;entryPerimeter=0;" edge="1" parent="1" source="3vHU1Un_TV8UR1uH7hlG-86" target="3vHU1Un_TV8UR1uH7hlG-92">
          <mxGeometry relative="1" as="geometry" />
        </mxCell>
        <mxCell id="3vHU1Un_TV8UR1uH7hlG-95" value="Create post success" style="rounded=1;whiteSpace=wrap;html=1;absoluteArcSize=1;arcSize=14;strokeWidth=2;" vertex="1" parent="1">
          <mxGeometry x="60" y="699.37" width="100" height="50" as="geometry" />
        </mxCell>
        <mxCell id="3vHU1Un_TV8UR1uH7hlG-102" value="" style="edgeStyle=orthogonalEdgeStyle;rounded=0;orthogonalLoop=1;jettySize=auto;html=1;" edge="1" parent="1" source="3vHU1Un_TV8UR1uH7hlG-97" target="3vHU1Un_TV8UR1uH7hlG-101">
          <mxGeometry relative="1" as="geometry" />
        </mxCell>
        <mxCell id="3vHU1Un_TV8UR1uH7hlG-97" value="&lt;span style=&quot;font-size: 10px;&quot;&gt;Create feedback?&lt;/span&gt;" style="strokeWidth=2;html=1;shape=mxgraph.flowchart.decision;whiteSpace=wrap;" vertex="1" parent="1">
          <mxGeometry x="202" y="574.37" width="100" height="40" as="geometry" />
        </mxCell>
        <mxCell id="3vHU1Un_TV8UR1uH7hlG-104" value="" style="edgeStyle=orthogonalEdgeStyle;rounded=0;orthogonalLoop=1;jettySize=auto;html=1;" edge="1" parent="1" source="3vHU1Un_TV8UR1uH7hlG-101" target="3vHU1Un_TV8UR1uH7hlG-103">
          <mxGeometry relative="1" as="geometry" />
        </mxCell>
        <mxCell id="3vHU1Un_TV8UR1uH7hlG-101" value="" style="strokeWidth=2;html=1;shape=mxgraph.flowchart.database;whiteSpace=wrap;" vertex="1" parent="1">
          <mxGeometry x="237.5" y="649.37" width="29" height="30" as="geometry" />
        </mxCell>
        <mxCell id="3vHU1Un_TV8UR1uH7hlG-107" style="edgeStyle=orthogonalEdgeStyle;rounded=0;orthogonalLoop=1;jettySize=auto;html=1;entryX=0.5;entryY=0;entryDx=0;entryDy=0;" edge="1" parent="1" source="3vHU1Un_TV8UR1uH7hlG-103" target="3vHU1Un_TV8UR1uH7hlG-105">
          <mxGeometry relative="1" as="geometry">
            <Array as="points">
              <mxPoint x="252" y="760" />
              <mxPoint x="177" y="760" />
            </Array>
          </mxGeometry>
        </mxCell>
        <mxCell id="3vHU1Un_TV8UR1uH7hlG-109" style="edgeStyle=orthogonalEdgeStyle;rounded=0;orthogonalLoop=1;jettySize=auto;html=1;entryX=0.5;entryY=0;entryDx=0;entryDy=0;" edge="1" parent="1" source="3vHU1Un_TV8UR1uH7hlG-103" target="3vHU1Un_TV8UR1uH7hlG-106">
          <mxGeometry relative="1" as="geometry">
            <Array as="points">
              <mxPoint x="252" y="760" />
              <mxPoint x="327" y="760" />
            </Array>
          </mxGeometry>
        </mxCell>
        <mxCell id="3vHU1Un_TV8UR1uH7hlG-103" value="&lt;span style=&quot;font-size: 10px;&quot;&gt;Is logged in?&lt;/span&gt;" style="strokeWidth=2;html=1;shape=mxgraph.flowchart.decision;whiteSpace=wrap;" vertex="1" parent="1">
          <mxGeometry x="202" y="709.37" width="100" height="40" as="geometry" />
        </mxCell>
        <mxCell id="3vHU1Un_TV8UR1uH7hlG-105" value="Unable to create feedback,&amp;nbsp;&lt;div&gt;Please login&lt;/div&gt;" style="rounded=1;whiteSpace=wrap;html=1;absoluteArcSize=1;arcSize=14;strokeWidth=2;" vertex="1" parent="1">
          <mxGeometry x="127" y="780" width="100" height="50" as="geometry" />
        </mxCell>
        <mxCell id="3vHU1Un_TV8UR1uH7hlG-114" value="" style="edgeStyle=orthogonalEdgeStyle;rounded=0;orthogonalLoop=1;jettySize=auto;html=1;" edge="1" parent="1" source="3vHU1Un_TV8UR1uH7hlG-106" target="3vHU1Un_TV8UR1uH7hlG-113">
          <mxGeometry relative="1" as="geometry" />
        </mxCell>
        <mxCell id="3vHU1Un_TV8UR1uH7hlG-106" value="Create feedback" style="rounded=1;whiteSpace=wrap;html=1;absoluteArcSize=1;arcSize=14;strokeWidth=2;" vertex="1" parent="1">
          <mxGeometry x="277" y="780" width="100" height="50" as="geometry" />
        </mxCell>
        <mxCell id="3vHU1Un_TV8UR1uH7hlG-110" value="Yes" style="text;html=1;align=center;verticalAlign=middle;whiteSpace=wrap;rounded=0;" vertex="1" parent="1">
          <mxGeometry x="277" y="740" width="40" height="20" as="geometry" />
        </mxCell>
        <mxCell id="3vHU1Un_TV8UR1uH7hlG-111" value="No" style="text;html=1;align=center;verticalAlign=middle;whiteSpace=wrap;rounded=0;" vertex="1" parent="1">
          <mxGeometry x="187" y="740" width="40" height="20" as="geometry" />
        </mxCell>
        <mxCell id="3vHU1Un_TV8UR1uH7hlG-117" value="" style="edgeStyle=orthogonalEdgeStyle;rounded=0;orthogonalLoop=1;jettySize=auto;html=1;" edge="1" parent="1" source="3vHU1Un_TV8UR1uH7hlG-113" target="3vHU1Un_TV8UR1uH7hlG-115">
          <mxGeometry relative="1" as="geometry" />
        </mxCell>
        <mxCell id="3vHU1Un_TV8UR1uH7hlG-113" value="" style="strokeWidth=2;html=1;shape=mxgraph.flowchart.database;whiteSpace=wrap;" vertex="1" parent="1">
          <mxGeometry x="312.5" y="860" width="29" height="30" as="geometry" />
        </mxCell>
        <mxCell id="3vHU1Un_TV8UR1uH7hlG-115" value="Create feedback success" style="rounded=1;whiteSpace=wrap;html=1;absoluteArcSize=1;arcSize=14;strokeWidth=2;" vertex="1" parent="1">
          <mxGeometry x="277" y="920" width="100" height="50" as="geometry" />
        </mxCell>
        <mxCell id="3vHU1Un_TV8UR1uH7hlG-116" style="edgeStyle=orthogonalEdgeStyle;rounded=0;orthogonalLoop=1;jettySize=auto;html=1;exitX=0.5;exitY=1;exitDx=0;exitDy=0;exitPerimeter=0;" edge="1" parent="1" source="3vHU1Un_TV8UR1uH7hlG-113" target="3vHU1Un_TV8UR1uH7hlG-113">
          <mxGeometry relative="1" as="geometry" />
        </mxCell>
        <mxCell id="3vHU1Un_TV8UR1uH7hlG-124" value="" style="edgeStyle=orthogonalEdgeStyle;rounded=0;orthogonalLoop=1;jettySize=auto;html=1;" edge="1" parent="1" source="3vHU1Un_TV8UR1uH7hlG-118" target="3vHU1Un_TV8UR1uH7hlG-122">
          <mxGeometry relative="1" as="geometry" />
        </mxCell>
        <mxCell id="3vHU1Un_TV8UR1uH7hlG-118" value="&lt;span style=&quot;font-size: 10px;&quot;&gt;Comment?&lt;/span&gt;" style="strokeWidth=2;html=1;shape=mxgraph.flowchart.decision;whiteSpace=wrap;" vertex="1" parent="1">
          <mxGeometry x="362" y="574.37" width="100" height="40" as="geometry" />
        </mxCell>
        <mxCell id="3vHU1Un_TV8UR1uH7hlG-122" value="" style="strokeWidth=2;html=1;shape=mxgraph.flowchart.database;whiteSpace=wrap;" vertex="1" parent="1">
          <mxGeometry x="397.5" y="649.37" width="29" height="30" as="geometry" />
        </mxCell>
        <mxCell id="3vHU1Un_TV8UR1uH7hlG-131" style="edgeStyle=orthogonalEdgeStyle;rounded=0;orthogonalLoop=1;jettySize=auto;html=1;entryX=0.5;entryY=0;entryDx=0;entryDy=0;" edge="1" parent="1" source="3vHU1Un_TV8UR1uH7hlG-125" target="3vHU1Un_TV8UR1uH7hlG-128">
          <mxGeometry relative="1" as="geometry">
            <Array as="points">
              <mxPoint x="520" y="760" />
              <mxPoint x="445" y="760" />
            </Array>
          </mxGeometry>
        </mxCell>
        <mxCell id="3vHU1Un_TV8UR1uH7hlG-125" value="&lt;span style=&quot;font-size: 10px;&quot;&gt;Is logged in?&lt;/span&gt;" style="strokeWidth=2;html=1;shape=mxgraph.flowchart.decision;whiteSpace=wrap;" vertex="1" parent="1">
          <mxGeometry x="470" y="709.37" width="100" height="40" as="geometry" />
        </mxCell>
        <mxCell id="3vHU1Un_TV8UR1uH7hlG-127" style="edgeStyle=orthogonalEdgeStyle;rounded=0;orthogonalLoop=1;jettySize=auto;html=1;entryX=0.5;entryY=0;entryDx=0;entryDy=0;entryPerimeter=0;" edge="1" parent="1" source="3vHU1Un_TV8UR1uH7hlG-122" target="3vHU1Un_TV8UR1uH7hlG-125">
          <mxGeometry relative="1" as="geometry" />
        </mxCell>
        <mxCell id="3vHU1Un_TV8UR1uH7hlG-128" value="Unable to create comment,&amp;nbsp;&lt;div&gt;Please login&lt;/div&gt;" style="rounded=1;whiteSpace=wrap;html=1;absoluteArcSize=1;arcSize=14;strokeWidth=2;" vertex="1" parent="1">
          <mxGeometry x="395" y="780" width="100" height="50" as="geometry" />
        </mxCell>
        <mxCell id="3vHU1Un_TV8UR1uH7hlG-129" value="Create comment" style="rounded=1;whiteSpace=wrap;html=1;absoluteArcSize=1;arcSize=14;strokeWidth=2;" vertex="1" parent="1">
          <mxGeometry x="545" y="780" width="100" height="50" as="geometry" />
        </mxCell>
        <mxCell id="3vHU1Un_TV8UR1uH7hlG-132" style="edgeStyle=orthogonalEdgeStyle;rounded=0;orthogonalLoop=1;jettySize=auto;html=1;entryX=0.555;entryY=0.018;entryDx=0;entryDy=0;entryPerimeter=0;" edge="1" parent="1" source="3vHU1Un_TV8UR1uH7hlG-125" target="3vHU1Un_TV8UR1uH7hlG-129">
          <mxGeometry relative="1" as="geometry">
            <Array as="points">
              <mxPoint x="520" y="760" />
              <mxPoint x="601" y="760" />
            </Array>
          </mxGeometry>
        </mxCell>
        <mxCell id="3vHU1Un_TV8UR1uH7hlG-133" value="" style="edgeStyle=orthogonalEdgeStyle;rounded=0;orthogonalLoop=1;jettySize=auto;html=1;" edge="1" parent="1" source="3vHU1Un_TV8UR1uH7hlG-134" target="3vHU1Un_TV8UR1uH7hlG-135">
          <mxGeometry relative="1" as="geometry" />
        </mxCell>
        <mxCell id="3vHU1Un_TV8UR1uH7hlG-134" value="" style="strokeWidth=2;html=1;shape=mxgraph.flowchart.database;whiteSpace=wrap;" vertex="1" parent="1">
          <mxGeometry x="580.5" y="860" width="29" height="30" as="geometry" />
        </mxCell>
        <mxCell id="3vHU1Un_TV8UR1uH7hlG-135" value="Create comment success" style="rounded=1;whiteSpace=wrap;html=1;absoluteArcSize=1;arcSize=14;strokeWidth=2;" vertex="1" parent="1">
          <mxGeometry x="545" y="920" width="100" height="50" as="geometry" />
        </mxCell>
        <mxCell id="3vHU1Un_TV8UR1uH7hlG-136" style="edgeStyle=orthogonalEdgeStyle;rounded=0;orthogonalLoop=1;jettySize=auto;html=1;exitX=0.5;exitY=1;exitDx=0;exitDy=0;exitPerimeter=0;" edge="1" parent="1" source="3vHU1Un_TV8UR1uH7hlG-134" target="3vHU1Un_TV8UR1uH7hlG-134">
          <mxGeometry relative="1" as="geometry" />
        </mxCell>
        <mxCell id="3vHU1Un_TV8UR1uH7hlG-139" style="edgeStyle=orthogonalEdgeStyle;rounded=0;orthogonalLoop=1;jettySize=auto;html=1;entryX=0.5;entryY=0;entryDx=0;entryDy=0;entryPerimeter=0;" edge="1" parent="1" source="3vHU1Un_TV8UR1uH7hlG-129" target="3vHU1Un_TV8UR1uH7hlG-134">
          <mxGeometry relative="1" as="geometry" />
        </mxCell>
        <mxCell id="3vHU1Un_TV8UR1uH7hlG-140" value="&lt;span style=&quot;font-size: 10px;&quot;&gt;Down/Up Vote?&lt;/span&gt;" style="strokeWidth=2;html=1;shape=mxgraph.flowchart.decision;whiteSpace=wrap;" vertex="1" parent="1">
          <mxGeometry x="600" y="574.37" width="100" height="40" as="geometry" />
        </mxCell>
        <mxCell id="3vHU1Un_TV8UR1uH7hlG-141" style="edgeStyle=orthogonalEdgeStyle;rounded=0;orthogonalLoop=1;jettySize=auto;html=1;entryX=0;entryY=0.5;entryDx=0;entryDy=0;entryPerimeter=0;" edge="1" parent="1" source="3vHU1Un_TV8UR1uH7hlG-79" target="3vHU1Un_TV8UR1uH7hlG-140">
          <mxGeometry relative="1" as="geometry" />
        </mxCell>
        <mxCell id="3vHU1Un_TV8UR1uH7hlG-142" style="edgeStyle=orthogonalEdgeStyle;rounded=0;orthogonalLoop=1;jettySize=auto;html=1;entryX=0.5;entryY=0;entryDx=0;entryDy=0;" edge="1" parent="1" source="3vHU1Un_TV8UR1uH7hlG-143" target="3vHU1Un_TV8UR1uH7hlG-144">
          <mxGeometry relative="1" as="geometry">
            <Array as="points">
              <mxPoint x="734.5" y="700" />
              <mxPoint x="659.5" y="700" />
            </Array>
          </mxGeometry>
        </mxCell>
        <mxCell id="3vHU1Un_TV8UR1uH7hlG-143" value="&lt;span style=&quot;font-size: 10px;&quot;&gt;Is logged in?&lt;/span&gt;" style="strokeWidth=2;html=1;shape=mxgraph.flowchart.decision;whiteSpace=wrap;" vertex="1" parent="1">
          <mxGeometry x="684.5" y="649.37" width="100" height="40" as="geometry" />
        </mxCell>
        <mxCell id="3vHU1Un_TV8UR1uH7hlG-144" value="Unable to Down/Up vote" style="rounded=1;whiteSpace=wrap;html=1;absoluteArcSize=1;arcSize=14;strokeWidth=2;" vertex="1" parent="1">
          <mxGeometry x="609.5" y="720" width="100" height="50" as="geometry" />
        </mxCell>
        <mxCell id="3vHU1Un_TV8UR1uH7hlG-145" value="Down/Upvote" style="rounded=1;whiteSpace=wrap;html=1;absoluteArcSize=1;arcSize=14;strokeWidth=2;" vertex="1" parent="1">
          <mxGeometry x="759.5" y="720" width="100" height="50" as="geometry" />
        </mxCell>
        <mxCell id="3vHU1Un_TV8UR1uH7hlG-146" style="edgeStyle=orthogonalEdgeStyle;rounded=0;orthogonalLoop=1;jettySize=auto;html=1;entryX=0.555;entryY=0.018;entryDx=0;entryDy=0;entryPerimeter=0;" edge="1" parent="1" source="3vHU1Un_TV8UR1uH7hlG-143" target="3vHU1Un_TV8UR1uH7hlG-145">
          <mxGeometry relative="1" as="geometry">
            <Array as="points">
              <mxPoint x="734.5" y="700" />
              <mxPoint x="815.5" y="700" />
            </Array>
          </mxGeometry>
        </mxCell>
        <mxCell id="3vHU1Un_TV8UR1uH7hlG-147" value="" style="edgeStyle=orthogonalEdgeStyle;rounded=0;orthogonalLoop=1;jettySize=auto;html=1;" edge="1" parent="1" source="3vHU1Un_TV8UR1uH7hlG-148" target="3vHU1Un_TV8UR1uH7hlG-149">
          <mxGeometry relative="1" as="geometry" />
        </mxCell>
        <mxCell id="3vHU1Un_TV8UR1uH7hlG-148" value="" style="strokeWidth=2;html=1;shape=mxgraph.flowchart.database;whiteSpace=wrap;" vertex="1" parent="1">
          <mxGeometry x="795" y="800" width="29" height="30" as="geometry" />
        </mxCell>
        <mxCell id="3vHU1Un_TV8UR1uH7hlG-149" value="Down/Up vote success" style="rounded=1;whiteSpace=wrap;html=1;absoluteArcSize=1;arcSize=14;strokeWidth=2;" vertex="1" parent="1">
          <mxGeometry x="759.5" y="860" width="100" height="50" as="geometry" />
        </mxCell>
        <mxCell id="3vHU1Un_TV8UR1uH7hlG-150" style="edgeStyle=orthogonalEdgeStyle;rounded=0;orthogonalLoop=1;jettySize=auto;html=1;exitX=0.5;exitY=1;exitDx=0;exitDy=0;exitPerimeter=0;" edge="1" parent="1" source="3vHU1Un_TV8UR1uH7hlG-148" target="3vHU1Un_TV8UR1uH7hlG-148">
          <mxGeometry relative="1" as="geometry" />
        </mxCell>
        <mxCell id="3vHU1Un_TV8UR1uH7hlG-151" style="edgeStyle=orthogonalEdgeStyle;rounded=0;orthogonalLoop=1;jettySize=auto;html=1;entryX=0.5;entryY=0;entryDx=0;entryDy=0;entryPerimeter=0;" edge="1" parent="1" source="3vHU1Un_TV8UR1uH7hlG-145" target="3vHU1Un_TV8UR1uH7hlG-148">
          <mxGeometry relative="1" as="geometry" />
        </mxCell>
        <mxCell id="3vHU1Un_TV8UR1uH7hlG-152" style="edgeStyle=orthogonalEdgeStyle;rounded=0;orthogonalLoop=1;jettySize=auto;html=1;entryX=0.5;entryY=0;entryDx=0;entryDy=0;entryPerimeter=0;" edge="1" parent="1" source="3vHU1Un_TV8UR1uH7hlG-140" target="3vHU1Un_TV8UR1uH7hlG-143">
          <mxGeometry relative="1" as="geometry">
            <Array as="points">
              <mxPoint x="650" y="629" />
              <mxPoint x="735" y="629" />
            </Array>
          </mxGeometry>
        </mxCell>
        <mxCell id="3vHU1Un_TV8UR1uH7hlG-160" value="" style="edgeStyle=orthogonalEdgeStyle;rounded=0;orthogonalLoop=1;jettySize=auto;html=1;" edge="1" parent="1" source="3vHU1Un_TV8UR1uH7hlG-153" target="3vHU1Un_TV8UR1uH7hlG-159">
          <mxGeometry relative="1" as="geometry" />
        </mxCell>
        <mxCell id="3vHU1Un_TV8UR1uH7hlG-153" value="&lt;span style=&quot;font-size: 10px;&quot;&gt;Forget pass?&lt;/span&gt;" style="strokeWidth=2;html=1;shape=mxgraph.flowchart.decision;whiteSpace=wrap;" vertex="1" parent="1">
          <mxGeometry x="-614.5" y="649.37" width="100" height="40" as="geometry" />
        </mxCell>
        <mxCell id="3vHU1Un_TV8UR1uH7hlG-154" style="edgeStyle=orthogonalEdgeStyle;rounded=0;orthogonalLoop=1;jettySize=auto;html=1;entryX=0.5;entryY=0;entryDx=0;entryDy=0;entryPerimeter=0;" edge="1" parent="1" source="3vHU1Un_TV8UR1uH7hlG-26" target="3vHU1Un_TV8UR1uH7hlG-153">
          <mxGeometry relative="1" as="geometry" />
        </mxCell>
        <mxCell id="3vHU1Un_TV8UR1uH7hlG-163" value="" style="edgeStyle=orthogonalEdgeStyle;rounded=0;orthogonalLoop=1;jettySize=auto;html=1;" edge="1" parent="1" source="3vHU1Un_TV8UR1uH7hlG-159" target="3vHU1Un_TV8UR1uH7hlG-161">
          <mxGeometry relative="1" as="geometry" />
        </mxCell>
        <mxCell id="3vHU1Un_TV8UR1uH7hlG-159" value="&lt;div style=&quot;text-align: start;&quot;&gt;Enter email&lt;/div&gt;" style="rounded=1;whiteSpace=wrap;html=1;absoluteArcSize=1;arcSize=14;strokeWidth=2;" vertex="1" parent="1">
          <mxGeometry x="-614.5" y="720" width="100" height="50" as="geometry" />
        </mxCell>
        <mxCell id="3vHU1Un_TV8UR1uH7hlG-165" value="" style="edgeStyle=orthogonalEdgeStyle;rounded=0;orthogonalLoop=1;jettySize=auto;html=1;" edge="1" parent="1" source="3vHU1Un_TV8UR1uH7hlG-161" target="3vHU1Un_TV8UR1uH7hlG-164">
          <mxGeometry relative="1" as="geometry" />
        </mxCell>
        <mxCell id="3vHU1Un_TV8UR1uH7hlG-161" value="" style="strokeWidth=2;html=1;shape=mxgraph.flowchart.database;whiteSpace=wrap;" vertex="1" parent="1">
          <mxGeometry x="-579" y="800" width="29" height="30" as="geometry" />
        </mxCell>
        <mxCell id="3vHU1Un_TV8UR1uH7hlG-170" style="edgeStyle=orthogonalEdgeStyle;rounded=0;orthogonalLoop=1;jettySize=auto;html=1;" edge="1" parent="1" source="3vHU1Un_TV8UR1uH7hlG-164" target="3vHU1Un_TV8UR1uH7hlG-168">
          <mxGeometry relative="1" as="geometry">
            <Array as="points">
              <mxPoint x="-564" y="900" />
              <mxPoint x="-640" y="900" />
            </Array>
          </mxGeometry>
        </mxCell>
        <mxCell id="3vHU1Un_TV8UR1uH7hlG-171" style="edgeStyle=orthogonalEdgeStyle;rounded=0;orthogonalLoop=1;jettySize=auto;html=1;entryX=0.5;entryY=0;entryDx=0;entryDy=0;" edge="1" parent="1" target="3vHU1Un_TV8UR1uH7hlG-169">
          <mxGeometry relative="1" as="geometry">
            <mxPoint x="-525.5" y="900.0000000000002" as="sourcePoint" />
            <Array as="points">
              <mxPoint x="-564" y="900" />
              <mxPoint x="-490" y="900" />
            </Array>
          </mxGeometry>
        </mxCell>
        <mxCell id="3vHU1Un_TV8UR1uH7hlG-164" value="&lt;span style=&quot;font-size: 10px;&quot;&gt;Email correct?&lt;/span&gt;" style="strokeWidth=2;html=1;shape=mxgraph.flowchart.decision;whiteSpace=wrap;" vertex="1" parent="1">
          <mxGeometry x="-614.5" y="855" width="100" height="40" as="geometry" />
        </mxCell>
        <mxCell id="3vHU1Un_TV8UR1uH7hlG-168" value="&lt;div style=&quot;text-align: start;&quot;&gt;Wrong email&lt;/div&gt;" style="rounded=1;whiteSpace=wrap;html=1;absoluteArcSize=1;arcSize=14;strokeWidth=2;" vertex="1" parent="1">
          <mxGeometry x="-690" y="920" width="100" height="50" as="geometry" />
        </mxCell>
        <mxCell id="3vHU1Un_TV8UR1uH7hlG-181" value="" style="edgeStyle=orthogonalEdgeStyle;rounded=0;orthogonalLoop=1;jettySize=auto;html=1;" edge="1" parent="1" source="3vHU1Un_TV8UR1uH7hlG-169" target="3vHU1Un_TV8UR1uH7hlG-180">
          <mxGeometry relative="1" as="geometry" />
        </mxCell>
        <mxCell id="3vHU1Un_TV8UR1uH7hlG-169" value="&lt;div style=&quot;&quot;&gt;Send OTP to Telegarm&lt;/div&gt;" style="rounded=1;whiteSpace=wrap;html=1;absoluteArcSize=1;arcSize=14;strokeWidth=2;align=center;" vertex="1" parent="1">
          <mxGeometry x="-540.5" y="920" width="100" height="50" as="geometry" />
        </mxCell>
        <mxCell id="3vHU1Un_TV8UR1uH7hlG-174" value="No" style="text;html=1;align=center;verticalAlign=middle;whiteSpace=wrap;rounded=0;" vertex="1" parent="1">
          <mxGeometry x="-640" y="880" width="40" height="20" as="geometry" />
        </mxCell>
        <mxCell id="3vHU1Un_TV8UR1uH7hlG-176" value="Yes" style="text;html=1;align=center;verticalAlign=middle;whiteSpace=wrap;rounded=0;" vertex="1" parent="1">
          <mxGeometry x="-520" y="880" width="40" height="20" as="geometry" />
        </mxCell>
        <mxCell id="3vHU1Un_TV8UR1uH7hlG-183" value="" style="edgeStyle=orthogonalEdgeStyle;rounded=0;orthogonalLoop=1;jettySize=auto;html=1;" edge="1" parent="1" source="3vHU1Un_TV8UR1uH7hlG-180" target="3vHU1Un_TV8UR1uH7hlG-182">
          <mxGeometry relative="1" as="geometry" />
        </mxCell>
        <mxCell id="3vHU1Un_TV8UR1uH7hlG-180" value="&lt;span style=&quot;font-size: 10px;&quot;&gt;OTP Correct?&lt;/span&gt;" style="strokeWidth=2;html=1;shape=mxgraph.flowchart.decision;whiteSpace=wrap;" vertex="1" parent="1">
          <mxGeometry x="-394.5" y="925" width="100" height="40" as="geometry" />
        </mxCell>
        <mxCell id="3vHU1Un_TV8UR1uH7hlG-185" value="" style="edgeStyle=orthogonalEdgeStyle;rounded=0;orthogonalLoop=1;jettySize=auto;html=1;" edge="1" parent="1" source="3vHU1Un_TV8UR1uH7hlG-182" target="3vHU1Un_TV8UR1uH7hlG-184">
          <mxGeometry relative="1" as="geometry" />
        </mxCell>
        <mxCell id="3vHU1Un_TV8UR1uH7hlG-182" value="" style="strokeWidth=2;html=1;shape=mxgraph.flowchart.database;whiteSpace=wrap;" vertex="1" parent="1">
          <mxGeometry x="-260" y="930" width="29" height="30" as="geometry" />
        </mxCell>
        <mxCell id="3vHU1Un_TV8UR1uH7hlG-184" value="&lt;div style=&quot;&quot;&gt;Change password&lt;/div&gt;" style="rounded=1;whiteSpace=wrap;html=1;absoluteArcSize=1;arcSize=14;strokeWidth=2;align=center;" vertex="1" parent="1">
          <mxGeometry x="-200" y="920" width="100" height="50" as="geometry" />
        </mxCell>
      </root>
    </mxGraphModel>
  </diagram>
</mxfile>
